<?xml version="1.0" encoding="utf-8"?>
<!-- Generator: Adobe Illustrator 18.1.0, SVG Export Plug-In . SVG Version: 6.00 Build 0)  -->
<svg version="1.1" id="Layer_1" xmlns="http://www.w3.org/2000/svg" xmlns:xlink="http://www.w3.org/1999/xlink" x="0px" y="0px"
	 viewBox="0 0 150 150" enable-background="new 0 0 150 150" xml:space="preserve">
<path fill="#FFFFFF" stroke="#EC2456" stroke-width="10" stroke-miterlimit="10" d="M109.4,129.4l-61.1,11.5c-5.4,1-10.7-2.6-11.7-8
	l-16-85c-1-5.4,2.6-10.7,8-11.7l61.1-11.5c5.4-1,10.7,2.6,11.7,8l16,85C118.4,123.2,114.8,128.4,109.4,129.4z"/>
<path fill="#FFFFFF" stroke="#EC2456" stroke-width="10" stroke-miterlimit="10" d="M121.2,114.6H59c-5.5,0-10-4.5-10-10V18.2
	c0-5.5,4.5-10,10-10h62.2c5.5,0,10,4.5,10,10v86.5C131.2,110.1,126.7,114.6,121.2,114.6z"/>
<g>
	<g>
		<circle fill="#EC2456" stroke="#FFFFFF" stroke-miterlimit="10" cx="90.1" cy="64.6" r="17.2"/>
		<rect x="70.7" y="40.9" fill="#FFFFFF" stroke="#FFFFFF" stroke-miterlimit="10" width="38.7" height="23.7"/>
	</g>
	<g>
		<circle fill="#EC2456" stroke="#FFFFFF" stroke-miterlimit="10" cx="74.6" cy="52.5" r="5.1"/>
		<circle fill="#EC2456" stroke="#FFFFFF" stroke-miterlimit="10" cx="105.6" cy="52.5" r="5.1"/>
	</g>
</g>
<g>
</g>
<g>
</g>
<g>
</g>
<g>
</g>
<g>
</g>
<g>
</g>
<g>
</g>
<g>
</g>
<g>
</g>
<g>
</g>
<g>
</g>
<g>
</g>
<g>
</g>
<g>
</g>
<g>
</g>
</svg>
