<?xml version="1.0" encoding="UTF-8"?>
<svg width="58px" height="40px" viewBox="0 0 58 40" version="1.1" xmlns="http://www.w3.org/2000/svg" xmlns:xlink="http://www.w3.org/1999/xlink">
    <!-- Generator: Sketch 40.1 (33804) - http://www.bohemiancoding.com/sketch -->
    <title>Group</title>
    <desc>Created with Sketch.</desc>
    <defs></defs>
    <g id="Home" stroke="none" stroke-width="1" fill="none" fill-rule="evenodd">
        <g id="Home-w/-Ads" transform="translate(-392.000000, -1166.000000)">
            <g id="Group-Copy" transform="translate(0.000000, 1138.000000)">
                <g id="Request-Pickup-button" transform="translate(375.000000, 1.780340)">
                    <g id="Group" transform="translate(17.000000, 27.000000)">
                        <path d="M12.9876858,11.2668641 L20.2063822,4.21191181 C20.6786112,3.74909127 21.4308554,3.77113034 21.8817273,4.26088753 C22.3349722,4.75309351 22.3112421,5.53425622 21.8342671,5.99952555 L14.6179436,13.02999 C14.3901347,13.2748686 14.0958814,13.37282 13.8016282,13.37282 C13.4860179,13.37282 13.1727805,13.2479319 12.9402256,12.9785655 C12.4893537,12.4888083 12.5130838,11.7296846 12.9876858,11.2668641 L12.9876858,11.2668641 Z M13.0161619,6.54070724 L15.5861317,4.18987274 C16.0773448,3.74909127 16.827216,3.7956182 17.2614768,4.28537539 C17.6981106,4.79962044 17.6506504,5.58568072 17.1594374,6.02646219 L14.5894675,8.37729669 C14.3616586,8.57075078 14.0840164,8.66870222 13.8016282,8.66870222 C13.4741528,8.66870222 13.1490504,8.54626292 12.9141225,8.2548574 C12.4798616,7.76510021 12.5273218,6.97903992 13.0161619,6.54070724 L13.0161619,6.54070724 Z M28.0895215,17.3643411 C36.976444,17.3643411 45.2819791,15.9171086 50.3934426,13.6397377 L50.3056413,13.5932107 L45.8704855,3.67317891 C44.8690753,1.4447837 42.6859061,0 40.303404,0 L15.7617345,0 C13.3934705,0 11.2126743,1.4447837 10.208891,3.64869105 L5.70491803,13.5932107 C10.7973975,15.8926207 19.1266627,17.3643411 28.0895215,17.3643411 L28.0895215,17.3643411 Z" id="Fill-6758" fill="#68A8B1"></path>
                        <path d="M10.4590164,21.7054264 C9.93606557,21.7054264 9.50819672,22.1048062 9.50819672,22.5736434 C9.50819672,23.059845 9.93606557,23.4418605 10.4590164,23.4418605 C10.9857705,23.4418605 11.4098361,23.059845 11.4098361,22.5736434 C11.4098361,22.1048062 10.9857705,21.7054264 10.4590164,21.7054264" id="Fill-6759" fill="#FFFFFF"></path>
                        <path d="M48.1810833,26.3786379 C46.1849167,26.3786379 44.5560833,24.8602349 44.5560833,22.9792282 C44.5560833,21.1208842 46.1849167,19.5798184 48.1810833,19.5798184 C50.1845,19.5798184 51.8060833,21.1208842 51.8060833,22.9792282 C51.8060833,24.8602349 50.1845,26.3786379 48.1810833,26.3786379 L48.1810833,26.3786379 Z M38.6666667,25.1095249 L19.3333333,25.1095249 C18.66875,25.1095249 18.125,24.6132111 18.125,23.9763883 C18.125,23.3667609 18.66875,22.8432518 19.3333333,22.8432518 L38.6666667,22.8432518 C39.3360833,22.8432518 39.875,23.3667609 39.875,23.9763883 C39.875,24.6132111 39.3360833,25.1095249 38.6666667,25.1095249 L38.6666667,25.1095249 Z M9.51441667,26.3786379 C7.51825,26.3786379 5.88941667,24.8602349 5.88941667,22.9792282 C5.88941667,21.1208842 7.51825,19.5798184 9.51441667,19.5798184 C11.5178333,19.5798184 13.1394167,21.1208842 13.1394167,22.9792282 C13.1394167,24.8602349 11.5178333,26.3786379 9.51441667,26.3786379 L9.51441667,26.3786379 Z M55.1386667,14.1656919 L54.6964167,13.9843901 C49.3531667,16.771906 39.6961667,18.5146701 29.05075,18.5146701 C18.2845,18.5146701 8.57675,16.7265806 3.26733333,13.8914729 L3.01841667,13.9843901 C1.21316667,14.639343 0,16.3186514 0,18.1316699 L0,24.5429566 C0,27.6046916 2.001,30.2335685 4.83333333,31.341776 L4.83333333,33.4040846 C4.83333333,36.5315415 7.54483333,39.0697674 10.875,39.0697674 C14.2075833,39.0697674 16.9166667,36.5315415 16.9166667,33.4040846 L16.9166667,31.9083443 L41.0833333,31.9083443 L41.0833333,33.4040846 C41.0833333,36.5315415 43.7948333,39.0697674 47.125,39.0697674 C50.4575833,39.0697674 53.1666667,36.5315415 53.1666667,33.4040846 L53.1666667,31.341776 C56.0038333,30.2335685 58,27.6046916 58,24.5429566 L58,18.2200546 C58,16.4523615 56.87625,14.8433076 55.1386667,14.1656919 L55.1386667,14.1656919 Z" id="Fill-6760" fill="#68A8B1"></path>
                        <path d="M47.5409836,21.7054264 C47.0180328,21.7054264 46.5901639,22.1048062 46.5901639,22.5736434 C46.5901639,23.059845 47.0180328,23.4418605 47.5409836,23.4418605 C48.0677377,23.4418605 48.4918033,23.059845 48.4918033,22.5736434 C48.4918033,22.1048062 48.0677377,21.7054264 47.5409836,21.7054264" id="Fill-6761" fill="#FFFFFF"></path>
                    </g>
                </g>
            </g>
        </g>
    </g>
</svg>