<?xml version="1.0" encoding="UTF-8"?>
<svg width="47px" height="61px" viewBox="0 0 47 61" version="1.1" xmlns="http://www.w3.org/2000/svg" xmlns:xlink="http://www.w3.org/1999/xlink">
    <!-- Generator: Sketch 40.1 (33804) - http://www.bohemiancoding.com/sketch -->
    <title>location 2 + Bowtie Copy</title>
    <desc>Created with Sketch.</desc>
    <defs>
        <path d="M9.65306122,19.7129051 C9.65306122,13.1865595 14.9666361,7.89556136 21.5217685,7.89556136 C28.0764805,7.89556136 33.3900553,13.1865595 33.3900553,19.7129051 C33.3900553,26.2391112 28.0764805,31.5294118 21.5217685,31.5294118 C14.9666361,31.5294118 9.65306122,26.2389717 9.65306122,19.7129051 Z" id="path-1"></path>
        <mask id="mask-2" maskContentUnits="userSpaceOnUse" maskUnits="objectBoundingBox" x="-2" y="-2" width="27.7369941" height="27.6338504">
            <rect x="7.65306122" y="5.89556136" width="27.7369941" height="27.6338504" fill="white"></rect>
            <use xlink:href="#path-1" fill="black"></use>
        </mask>
    </defs>
    <g id="Home" stroke="none" stroke-width="1" fill="none" fill-rule="evenodd">
        <g id="Home-w/-Ads" transform="translate(-69.000000, -1244.000000)">
            <g id="Home-Tab" transform="translate(0.000000, 1236.000000)">
                <g id="location-2-+-Bowtie-Copy" transform="translate(71.000000, 10.000000)">
                    <g id="location-2">
                        <path d="M7.10542736e-15,21.4282792 C7.10542736e-15,37.3086284 16.435077,47.3641552 21.5004164,56 C26.564923,47.3642738 43,37.308747 43,21.4282792 C43,9.59388109 33.3745106,-3.55271368e-15 21.5004164,-3.55271368e-15 C9.62608431,-3.55271368e-15 7.10542736e-15,9.59388109 7.10542736e-15,21.4282792 Z" id="Shape" stroke="#68A8B1" stroke-width="3" fill="#68A8B1"></path>
                        <g id="Path">
                            <use fill="#FFFFFF" fill-rule="evenodd" xlink:href="#path-1"></use>
                            <use stroke="#FFFFFF" mask="url(#mask-2)" stroke-width="4" xlink:href="#path-1"></use>
                        </g>
                    </g>
                    <g id="Bowtie" transform="translate(11.796460, 15.238095)" fill="#68A8B1">
                        <path d="M10.487255,7.52073733 L8.99387367,7.52073733 C8.05776068,7.52073733 7.29599772,6.79773535 7.29599772,5.91123634 L7.29599772,3.37990783 C7.29599772,2.49258723 8.05776068,1.76958525 8.99387367,1.76958525 L10.487255,1.76958525 C11.4233679,1.76958525 12.1843162,2.49258723 12.1843162,3.37990783 L12.1843162,5.91123634 C12.1843162,6.79773535 11.4233679,7.52073733 10.487255,7.52073733" id="Fill-1140"></path>
                        <path d="M17.5926448,0.0915477347 C16.8869223,0.205923372 14.1099522,1.08636892 12.4834067,2.00877964 C12.738788,2.38728894 12.8894388,2.83903156 12.8894388,3.33273935 L12.8894388,4.18849951 L13.6950582,4.18849951 C13.9182148,4.18849951 14.0978679,4.3695257 14.0978679,4.59992267 C14.0978679,4.83031963 13.9182148,5.01134582 13.6950582,5.01134582 L12.8894388,5.01134582 L12.8894388,5.86792883 C12.8894388,6.36081377 12.7363712,6.8216077 12.4761561,7.20834547 C14.101896,8.13075618 16.8861166,9.01037889 17.5926448,9.12557737 C17.6675674,9.13462868 17.74249,9.14285714 17.8158014,9.14285714 C18.2242504,9.14285714 18.6109477,8.96183095 18.9033876,8.64009805 C19.1772982,8.33646776 19.334394,7.93245022 19.334394,7.53830684 L19.334394,1.67881827 C19.334394,0.749824783 18.498161,-0.0573874474 17.5926448,0.0915477347" id="Fill-1141"></path>
                        <path d="M6.44495511,5.01134582 C6.44495511,5.01134582 5.23652603,4.83031963 5.23652603,4.59992267 C5.23652603,4.3695257 6.44495511,4.18849951 6.44495511,4.18849951 L6.44495511,3.33273935 C6.44495511,2.83903156 6.59641155,2.38728894 6.85098728,2.00877964 C5.22444174,1.08636892 2.4474717,0.205923372 1.74255474,0.0915477347 C0.837844164,-0.0573874474 0.000805619389,0.749824783 0,1.67881827 L0,7.53830684 C0,8.39324415 0.709750681,9.14285714 1.51859255,9.14285714 C1.59190391,9.14285714 5.23249793,8.13075618 6.85823786,7.20834547 C6.59882841,6.8216077 6.44495511,6.36081377 6.44495511,5.86792883 L6.44495511,5.01134582 Z" id="Fill-1142"></path>
                    </g>
                </g>
            </g>
        </g>
    </g>
</svg>