<?xml version="1.0" encoding="UTF-8"?>
<svg width="56px" height="54px" viewBox="0 0 56 54" version="1.1" xmlns="http://www.w3.org/2000/svg" xmlns:xlink="http://www.w3.org/1999/xlink">
    <!-- Generator: Sketch 40.1 (33804) - http://www.bohemiancoding.com/sketch -->
    <title>Members</title>
    <desc>Created with Sketch.</desc>
    <defs></defs>
    <g id="Home" stroke="none" stroke-width="1" fill="none" fill-rule="evenodd">
        <g id="Home-w/-Ads" transform="translate(-254.000000, -1244.000000)" fill="#68A8B1">
            <g id="Home-Tab" transform="translate(0.000000, 1236.000000)">
                <g id="Members" transform="translate(253.300003, 7.989990)">
                    <path d="M31.4794667,11.492266 C29.5642667,11.492266 27.1973333,12.3863766 24.9106667,13.246888 C24.1509333,13.5250143 23.4098667,13.8050071 22.7005333,14.0476676 C22.6034667,14.085 22.5026667,14.1055328 22.4,14.1055328 C19.6466667,14.1055328 18.6666667,16.5676034 18.6666667,18.8822111 L18.6666667,22.8581098 C18.6666667,23.362097 18.2485333,23.7914194 17.7333333,23.7914194 C16.8168,23.7914194 16.8,23.8119522 16.8,25.1913837 L16.8,27.5246576 C16.8,27.8233167 16.7906667,28.1425086 16.7794667,28.4579672 C16.7514667,29.2792796 16.7141333,30.3992511 16.996,30.6792439 C17.0725333,30.7744415 17.2424,30.7912411 17.3730667,30.7912411 C17.8882667,30.7912411 18.3064,31.2037639 18.3064,31.7245506 C18.3064,35.5511198 23.128,38.9502332 26.9285333,38.9502332 L27.2776,38.9502332 C30.9866667,38.9502332 35.6888,35.5511198 35.6888,31.7245506 C35.6888,31.2037639 36.1069333,30.7912411 36.6221333,30.7912411 C36.9264,30.7912411 37.0141333,30.6997767 37.0421333,30.6624444 C37.3762667,30.3245863 37.3557333,29.1112839 37.3408,28.2153067 L37.3333333,25.1913837 C37.3333333,24.7079294 36.5250667,23.9986141 35.9426667,23.6626227 C35.6496,23.494627 35.4666667,23.1959679 35.4666667,22.8581098 L35.4666667,18.1915621 C35.4666667,12.2575799 33.3349333,11.492266 31.4794667,11.492266 L31.4794667,11.492266 Z M27.2776,40.8149857 L26.9285333,40.8149857 C22.4653333,40.8149857 17.0669333,37.0649479 16.4901333,32.5085307 C16.1672,32.3984001 15.8890667,32.2285378 15.6557333,31.9858773 C14.8213333,31.1272325 14.868,29.7272682 14.9128,28.4038352 C14.924,28.1051762 14.9333333,27.8046505 14.9333333,27.5246576 L14.9333333,25.1913837 C14.9333333,24.1087447 14.9333333,22.4119879 16.8,21.999465 L16.8,18.8822111 C16.8,14.962311 18.9784,12.3117118 22.2394667,12.2389137 C22.8872,12.0130528 23.5629333,11.7517261 24.2517333,11.492266 C26.6970667,10.5757561 29.2245333,9.62378031 31.4794667,9.62378031 C35.364,9.62378031 37.3333333,12.5002404 37.3333333,18.1915621 L37.3333333,22.3354565 C38.0277333,22.8207775 39.2,23.847418 39.2,25.1913837 L39.2074667,28.1779743 C39.2317333,29.5984715 39.2578667,31.071234 38.3730667,31.9672111 C38.1304,32.2285378 37.8410667,32.3984001 37.5088,32.5085307 C36.9581333,37.1750785 31.6848,40.8149857 27.2776,40.8149857 L27.2776,40.8149857 Z" id="Fill-6782"></path>
                    <path d="M47.2210667,53.8813195 L7.44426667,53.8813195 C6.92906667,53.8813195 6.51093333,53.4706633 6.51093333,52.9498766 C6.51093333,45.3900692 11.7376,40.1243367 19.2210667,40.1243367 C19.7362667,40.1243367 20.1544,40.5349929 20.1544,41.0576462 C20.1544,41.5616334 19.7362667,41.9909558 19.2210667,41.9909558 C13.1488,41.9909558 8.81813333,46.0620521 8.40933333,52.0147004 L46.2578667,52.0147004 C45.8546667,45.9313887 41.524,41.7501619 35.4442667,41.7501619 C34.9290667,41.7501619 34.5109333,41.3376391 34.5109333,40.8149857 C34.5109333,40.294199 34.9290667,39.8816762 35.4442667,39.8816762 C42.8101333,39.8816762 48.1544,45.3695364 48.1544,52.9498766 C48.1544,53.4706633 47.7362667,53.8813195 47.2210667,53.8813195" id="Fill-6783"></path>
                    <path d="M1.61093333,23.7746198 C1.09573333,23.7746198 0.6776,23.362097 0.6776,22.8394437 C0.6776,19.108072 3.7128,16.0822825 7.44426667,16.0822825 C7.96133333,16.0822825 8.3776,16.4948053 8.3776,17.015592 C8.3776,17.5195792 7.96133333,17.9507682 7.44426667,17.9507682 C4.7432,17.9507682 2.54426667,20.1515121 2.54426667,22.8394437 C2.54426667,23.362097 2.128,23.7746198 1.61093333,23.7746198" id="Fill-6784"></path>
                    <path d="M55.2776,23.7746198 C54.7624,23.7746198 54.3442667,23.362097 54.3442667,22.8394437 C54.3442667,20.1515121 52.1472,17.9507682 49.4442667,17.9507682 C48.9290667,17.9507682 48.5109333,17.5195792 48.5109333,17.015592 C48.5109333,16.4948053 48.9290667,16.0822825 49.4442667,16.0822825 C53.1757333,16.0822825 56.2109333,19.108072 56.2109333,22.8394437 C56.2109333,23.362097 55.7946667,23.7746198 55.2776,23.7746198" id="Fill-6785"></path>
                    <path d="M31.4794667,11.492266 C29.5642667,11.492266 27.1973333,12.3863766 24.9106667,13.246888 C24.1509333,13.5250143 23.4098667,13.8050071 22.7005333,14.0476676 C22.6034667,14.085 22.5026667,14.1055328 22.4,14.1055328 C19.6466667,14.1055328 18.6666667,16.5676034 18.6666667,18.8822111 L18.6666667,22.8581098 C18.6666667,23.362097 18.2485333,23.7914194 17.7333333,23.7914194 C16.8168,23.7914194 16.8,23.8119522 16.8,25.1913837 L16.8,27.5246576 C16.8,29.3352782 16.8485333,30.7165763 17.4776,30.7912411 C17.9498667,30.8472397 18.3064,31.2392297 18.3064,31.7245506 C18.3064,35.5511198 23.128,38.9502332 26.9285333,38.9502332 L27.2776,38.9502332 C30.9866667,38.9502332 35.6888,35.5511198 35.6888,31.7245506 C35.6888,31.2205635 36.0882667,30.7912411 36.5904,30.7912411 C37.2773333,30.7539087 37.3333333,29.316612 37.3333333,27.56199 L37.3333333,25.1913837 C37.3333333,24.7079294 36.5250667,23.9986141 35.9426667,23.6626227 C35.6496,23.494627 35.4666667,23.1959679 35.4666667,22.8581098 L35.4666667,18.1915621 C35.4666667,12.2575799 33.3349333,11.492266 31.4794667,11.492266 L31.4794667,11.492266 Z M27.2776,40.8149857 L26.9285333,40.8149857 C22.4373333,40.8149857 16.9978667,37.0089494 16.4789333,32.4338659 C14.9314667,31.6872183 14.9333333,29.3912767 14.9333333,27.6571876 L14.9333333,25.1913837 C14.9333333,24.1087447 14.9333333,22.4119879 16.8,21.999465 L16.8,18.8822111 C16.8,14.962311 18.9784,12.3117118 22.2394667,12.2389137 C22.8872,12.0130528 23.5629333,11.7517261 24.2517333,11.492266 C26.6970667,10.5757561 29.2245333,9.62378031 31.4794667,9.62378031 C35.364,9.62378031 37.3333333,12.5002404 37.3333333,18.1915621 L37.3333333,22.3354565 C38.0277333,22.8207775 39.2,23.847418 39.2,25.1913837 L39.2,27.5246576 C39.2,29.2998124 39.2,31.7992154 37.5125333,32.4711983 C36.9842667,37.1582789 31.696,40.8149857 27.2776,40.8149857 L27.2776,40.8149857 Z" id="Fill-6786"></path>
                    <path d="M47.2210667,53.8813195 L7.44426667,53.8813195 C6.92906667,53.8813195 6.51093333,53.4706633 6.51093333,52.9498766 C6.51093333,45.3900692 11.7376,40.1243367 19.2210667,40.1243367 C19.7362667,40.1243367 20.1544,40.5349929 20.1544,41.0576462 C20.1544,41.5616334 19.7362667,41.9909558 19.2210667,41.9909558 C13.1488,41.9909558 8.81813333,46.0620521 8.40933333,52.0147004 L46.2578667,52.0147004 C45.8546667,45.9313887 41.524,41.7501619 35.4442667,41.7501619 C34.9290667,41.7501619 34.5109333,41.3376391 34.5109333,40.8149857 C34.5109333,40.294199 34.9290667,39.8816762 35.4442667,39.8816762 C42.8101333,39.8816762 48.1544,45.3695364 48.1544,52.9498766 C48.1544,53.4706633 47.7362667,53.8813195 47.2210667,53.8813195" id="Fill-6787"></path>
                    <path d="M1.61093333,23.7746198 C1.09573333,23.7746198 0.6776,23.362097 0.6776,22.8394437 C0.6776,19.108072 3.7128,16.0822825 7.44426667,16.0822825 C7.96133333,16.0822825 8.3776,16.4948053 8.3776,17.015592 C8.3776,17.5195792 7.96133333,17.9507682 7.44426667,17.9507682 C4.7432,17.9507682 2.54426667,20.1515121 2.54426667,22.8394437 C2.54426667,23.362097 2.128,23.7746198 1.61093333,23.7746198" id="Fill-6788"></path>
                    <path d="M55.2776,23.7746198 C54.7624,23.7746198 54.3442667,23.362097 54.3442667,22.8394437 C54.3442667,20.1515121 52.1472,17.9507682 49.4442667,17.9507682 C48.9290667,17.9507682 48.5109333,17.5195792 48.5109333,17.015592 C48.5109333,16.4948053 48.9290667,16.0822825 49.4442667,16.0822825 C53.1757333,16.0822825 56.2109333,19.108072 56.2109333,22.8394437 C56.2109333,23.362097 55.7946667,23.7746198 55.2776,23.7746198" id="Fill-6789"></path>
                    <path d="M12.1109333,2.79195435 C10.052,2.79195435 8.3776,4.45511198 8.3776,6.52519258 C8.3776,9.15899215 10.5074667,14.9249786 12.1109333,14.9249786 C13.7144,14.9249786 15.8442667,9.15899215 15.8442667,6.52519258 C15.8442667,4.45511198 14.1698667,2.79195435 12.1109333,2.79195435 L12.1109333,2.79195435 Z M12.1109333,16.7915977 C8.55866667,16.7915977 6.51093333,8.99099643 6.51093333,6.52519258 C6.51093333,3.42847147 9.02346667,0.925335235 12.1109333,0.925335235 C15.2002667,0.925335235 17.7109333,3.42847147 17.7109333,6.52519258 C17.7109333,8.99099643 15.6632,16.7915977 12.1109333,16.7915977 L12.1109333,16.7915977 Z" id="Fill-6790"></path>
                    <path d="M44.7776,2.79195435 C42.7186667,2.79195435 41.0442667,4.45511198 41.0442667,6.52519258 C41.0442667,9.15899215 43.1741333,14.9249786 44.7776,14.9249786 C46.3810667,14.9249786 48.5109333,9.15899215 48.5109333,6.52519258 C48.5109333,4.45511198 46.8365333,2.79195435 44.7776,2.79195435 L44.7776,2.79195435 Z M44.7776,16.7915977 C41.2253333,16.7915977 39.1776,8.99099643 39.1776,6.52519258 C39.1776,3.42847147 41.6901333,0.925335235 44.7776,0.925335235 C47.8669333,0.925335235 50.3776,3.42847147 50.3776,6.52519258 C50.3776,8.99099643 48.3298667,16.7915977 44.7776,16.7915977 L44.7776,16.7915977 Z" id="Fill-6791"></path>
                </g>
            </g>
        </g>
    </g>
</svg>