<?xml version="1.0" encoding="UTF-8"?>
<svg width="482px" height="150px" viewBox="0 0 482 150" version="1.1" xmlns="http://www.w3.org/2000/svg" xmlns:xlink="http://www.w3.org/1999/xlink">
    <!-- Generator: Sketch 40.1 (33804) - http://www.bohemiancoding.com/sketch -->
    <title>Button - App Store</title>
    <desc>Created with Sketch.</desc>
    <defs></defs>
    <g id="Page-1" stroke="none" stroke-width="1" fill="none" fill-rule="evenodd">
        <g id="Download-App-Button" transform="translate(-172.000000, -119.000000)">
            <g id="Button---App-Store" transform="translate(172.000000, 119.000000)">
                <rect id="Rectangle-1" fill="#212121" x="0" y="0" width="482" height="150" rx="75"></rect>
                <text id="Available-on-the" font-family="Lato-Regular, Lato" font-size="18" font-weight="normal" letter-spacing="0.684000015" fill="#FFFFFF">
                    <tspan x="168" y="58">Available on the</tspan>
                </text>
                <text id="Apple-Store" font-family="Lato-Regular, Lato" font-size="39.4736842" font-weight="normal" letter-spacing="1.49999988" fill="#FFFFFF">
                    <tspan x="168" y="102">Apple Store</tspan>
                </text>
                <path d="M88.8934426,132.236842 C120.532116,132.236842 146.180328,106.611035 146.180328,75 C146.180328,43.388965 120.532116,17.7631579 88.8934426,17.7631579 C57.2547695,17.7631579 31.6065574,43.388965 31.6065574,75 C31.6065574,106.611035 57.2547695,132.236842 88.8934426,132.236842 Z" id="Oval-1" stroke="#FFFFFF" opacity="0.702541978"></path>
                <g id="icon---apple" transform="translate(63.213115, 39.473684)" fill="#FFFFFF">
                    <path d="M49.3852459,44.6747691 C48.4634825,47.7388822 47.0099326,50.8029953 45.024596,53.8671084 C41.9756864,58.6716378 38.9385942,61.0739025 35.9133195,61.0739025 C34.7552065,61.0739025 33.1007595,60.681696 30.9499782,59.897283 C28.9173718,59.1128701 27.1329324,58.7206636 25.5966601,58.7206636 C24.1549276,58.7206636 22.4768456,59.1251265 20.5624139,59.9340524 C18.6479823,60.7674912 17.088075,61.1842105 15.8826921,61.1842105 C12.2901785,61.1842105 8.73311717,58.0097894 5.21150836,51.660947 C1.73716945,45.2630788 0,39.0980832 0,33.1659603 C0,27.577018 1.33537517,22.9931047 4.00612548,19.4142206 C6.65324085,15.8843623 10.0094049,14.1194332 14.0746178,14.1194332 C15.7763348,14.1194332 17.8680287,14.4871268 20.3496993,15.2225139 C22.807735,15.9579011 24.4385471,16.3255946 25.2421357,16.3255946 C26.3057089,16.3255946 27.9956084,15.9088753 30.3118343,15.0754365 C32.7226001,14.2419977 34.767024,13.8252783 36.4451061,13.8252783 C39.2576661,13.8252783 41.7747892,14.6219478 43.9964754,16.2152866 C45.2254932,17.0977511 46.454511,18.3233964 47.6835289,19.8922223 C45.8163671,21.5345869 44.4691745,22.9808483 43.641951,24.2310065 C42.1056787,26.5352195 41.3375425,29.0723052 41.3375425,31.8422634 C41.3375425,34.8818636 42.1529486,37.6150525 43.7837607,40.0418301 C45.4145729,42.4686077 47.2817346,44.0129207 49.3852459,44.6747691 L49.3852459,44.6747691 Z M36.0551293,1.54431301 C36.0551293,3.03960021 35.7124224,4.70647773 35.0270086,6.5449456 C34.3179598,8.38341346 33.2189342,10.0748039 31.7299319,11.6191169 C30.4536441,12.9428138 29.1773563,13.8252783 27.9010686,14.2665106 C27.0265751,14.5361526 25.7975573,14.7445123 24.214015,14.8915897 C24.2849199,11.2391669 25.2066833,8.0892586 26.9793052,5.44186488 C28.7282921,2.81898407 31.682662,1.00502909 35.8424146,0 C35.8660496,0.0735387146 35.8955933,0.208359704 35.9310457,0.40446293 C35.9664982,0.600566157 35.9960419,0.735387146 36.0196768,0.80892586 C36.0196768,0.906977492 36.0255856,1.029542 36.0374031,1.17661943 C36.0492205,1.32369686 36.0551293,1.44626137 36.0551293,1.54431301 L36.0551293,1.54431301 Z" id="Shape"></path>
                </g>
            </g>
        </g>
    </g>
</svg>