<?xml version="1.0" encoding="UTF-8"?>
<svg width="1024px" height="1024px" viewBox="0 0 1024 1024" version="1.1" xmlns="http://www.w3.org/2000/svg" xmlns:xlink="http://www.w3.org/1999/xlink">
    <!-- Generator: Sketch 39.1 (31720) - http://www.bohemiancoding.com/sketch -->
    <title>Icon Idea #1 Copy 6</title>
    <desc>Created with Sketch.</desc>
    <defs>
        <path d="M-1.13686838e-13,326.015962 C-1.13686838e-13,567.624133 249.966055,720.611789 327.006334,852 C404.033945,720.613593 654,567.625937 654,326.015962 C654,145.964048 507.603022,-5.68434189e-14 327.006334,-5.68434189e-14 C146.406026,-5.68434189e-14 -1.13686838e-13,145.964048 -1.13686838e-13,326.015962 Z" id="path-1"></path>
        <mask id="mask-2" maskContentUnits="userSpaceOnUse" maskUnits="objectBoundingBox" x="-10" y="-10" width="674" height="872">
            <rect x="-10" y="-10" width="674" height="872" fill="white"></rect>
            <use xlink:href="#path-1" fill="black"></use>
        </mask>
        <path d="M146.816327,299.91777 C146.816327,200.624084 227.632093,120.125326 327.331083,120.125326 C427.02368,120.125326 507.839446,200.624084 507.839446,299.91777 C507.839446,399.209334 427.02368,479.697479 327.331083,479.697479 C227.632093,479.697479 146.816327,399.207212 146.816327,299.91777 Z" id="path-3"></path>
        <mask id="mask-4" maskContentUnits="userSpaceOnUse" maskUnits="objectBoundingBox" x="-10" y="-10" width="381.02312" height="379.572153">
            <rect x="136.816327" y="110.125326" width="381.02312" height="379.572153" fill="white"></rect>
            <use xlink:href="#path-3" fill="black"></use>
        </mask>
    </defs>
    <g id="Page-1" stroke="none" stroke-width="1" fill="none" fill-rule="evenodd">
        <g id="Icon-Idea-#1-Copy-6">
            <path d="M357.009067,0 L666.990933,0 C769.792,0 821.179733,0 876.5184,17.4933333 C936.9344,39.4837333 984.516267,87.0656 1006.50667,147.4816 C1024,202.811733 1024,254.216533 1024,357.009067 L1024,666.990933 C1024,769.792 1024,821.179733 1006.50667,876.5184 C984.516267,936.9344 936.9344,984.516267 876.5184,1006.49813 C821.179733,1024 769.792,1024 666.990933,1024 L357.009067,1024 C254.208,1024 202.811733,1024 147.4816,1006.49813 C87.0656,984.516267 39.4837333,936.9344 17.4933333,876.5184 C0,821.179733 0,769.792 0,666.990933 L0,357.009067 C0,254.216533 0,202.811733 17.4933333,147.4816 C39.4837333,87.0656 87.0656,39.4837333 147.4816,17.4933333 C202.811733,0 254.208,0 357.009067,0 L357.009067,0" id="Icon-Shape" fill="#50939C"></path>
            <g id="logo" transform="translate(185.000000, 86.000000)">
                <g id="location-2">
                    <g id="Shape">
                        <use fill="#F9F9F9" fill-rule="evenodd" xlink:href="#path-1"></use>
                        <use stroke="#4A4A4A" mask="url(#mask-2)" stroke-width="20" xlink:href="#path-1"></use>
                    </g>
                    <g id="Path">
                        <use fill="#50939C" fill-rule="evenodd" xlink:href="#path-3"></use>
                        <use stroke="#4A4A4A" mask="url(#mask-4)" stroke-width="20" xlink:href="#path-3"></use>
                    </g>
                </g>
                <g id="Bowtie" transform="translate(179.071429, 232.352480)" stroke="#4A4A4A" stroke-width="12" fill="#F9F9F9">
                    <path d="M159.876156,112.451697 L137.109849,112.451697 C122.838989,112.451697 111.226062,101.54508 111.226062,88.1720806 L111.226062,49.9865274 C111.226062,36.6011339 122.838989,25.694517 137.109849,25.694517 L159.876156,25.694517 C174.147016,25.694517 185.747523,36.6011339 185.747523,49.9865274 L185.747523,88.1720806 C185.747523,101.54508 174.147016,112.451697 159.876156,112.451697" id="Fill-1140"></path>
                    <path d="M268.196438,0.38101431 C257.437835,2.1063917 215.103469,15.3880738 190.307099,29.302808 C194.200338,35.01269 196.49698,41.82731 196.49698,49.2749822 L196.49698,62.1842807 L208.778491,62.1842807 C212.180469,62.1842807 214.919246,64.9150938 214.919246,68.3906741 C214.919246,71.8662545 212.180469,74.5970676 208.778491,74.5970676 L196.49698,74.5970676 L196.49698,87.5187789 C196.49698,94.9540383 194.163493,101.905199 190.196566,107.739209 C214.980654,121.653943 257.425554,134.923212 268.196438,136.661002 C269.338619,136.797543 270.480799,136.921671 271.598417,136.921671 C277.825142,136.921671 283.720267,134.190858 288.178456,129.337458 C292.354169,124.75714 294.749064,118.662461 294.749064,112.716736 L294.749064,24.3252804 C294.749064,10.3112439 282.000856,-1.86570013 268.196438,0.38101431" id="Fill-1141"></path>
                    <path d="M98.2520832,74.5970676 C98.2520832,74.5970676 79.8298176,71.8662545 79.8298176,68.3906741 C79.8298176,64.9150938 98.2520832,62.1842807 98.2520832,62.1842807 L98.2520832,49.2749822 C98.2520832,41.82731 100.561007,35.01269 104.441964,29.302808 C79.645595,15.3880738 37.3112286,2.1063917 26.564907,0.38101431 C12.7727708,-1.86570013 0.0122815104,10.3112439 0,24.3252804 L0,112.716736 C0,125.613622 10.8200107,136.921671 23.1506471,136.921671 C24.2682646,136.921671 79.7684101,121.653943 104.552498,107.739209 C100.597852,101.905199 98.2520832,94.9540383 98.2520832,87.5187789 L98.2520832,74.5970676 Z" id="Fill-1142"></path>
                </g>
            </g>
        </g>
    </g>
</svg>